<svg width="14" height="12" viewBox="0 0 14 12" fill="none" xmlns="http://www.w3.org/2000/svg">
<path fill-rule="evenodd" clip-rule="evenodd" d="M10.82 1H3.18C2.61316 1 2.24717 1.00075 1.96845 1.02315C1.7011 1.04463 1.6017 1.08113 1.55302 1.10546C1.35931 1.20225 1.20225 1.35931 1.10546 1.55302C1.08113 1.6017 1.04463 1.7011 1.02315 1.96845C1.00075 2.24717 1 2.61316 1 3.18V8.82C1 9.35297 1.00067 9.70838 1.01936 9.98064L3.5 7.5L5.5 9.5L9.5 5.5L12.9999 8.99994C13 8.94229 13 8.88236 13 8.82V3.18C13 2.61316 12.9992 2.24717 12.9768 1.96845C12.9554 1.7011 12.9189 1.6017 12.8945 1.55302C12.7978 1.35931 12.6407 1.20225 12.447 1.10546C12.3983 1.08113 12.2989 1.04463 12.0316 1.02315C11.7528 1.00075 11.3868 1 10.82 1ZM0.210911 1.10604C0 1.52814 0 2.07876 0 3.18V8.82C0 9.92124 0 10.4719 0.210911 10.894C0.404497 11.2814 0.718616 11.5955 1.10604 11.7891C1.52814 12 2.07876 12 3.18 12H10.82C11.9212 12 12.4719 12 12.894 11.7891C13.2814 11.5955 13.5955 11.2814 13.7891 10.894C14 10.4719 14 9.92124 14 8.82V3.18C14 2.07876 14 1.52814 13.7891 1.10604C13.5955 0.718616 13.2814 0.404497 12.894 0.210911C12.4719 0 11.9212 0 10.82 0H3.18C2.07876 0 1.52814 0 1.10604 0.210911C0.718616 0.404497 0.404497 0.718616 0.210911 1.10604ZM5 4C5 4.55228 4.55228 5 4 5C3.44772 5 3 4.55228 3 4C3 3.44772 3.44772 3 4 3C4.55228 3 5 3.44772 5 4Z" fill="black" fill-opacity="0.2"/>
</svg>
